<?xml version="1.0" standalone="no"?>
<!DOCTYPE svg PUBLIC "-//W3C//DTD SVG 20010904//EN"
 "http://www.w3.org/TR/2001/REC-SVG-20010904/DTD/svg10.dtd">
<svg version="1.0" xmlns="http://www.w3.org/2000/svg"
 width="41.000000pt" height="41.000000pt" viewBox="0 0 41.000000 41.000000"
 preserveAspectRatio="xMidYMid meet">
<metadata>
Created by potrace 1.10, written by Peter Selinger 2001-2011
</metadata>
<g transform="translate(0.000000,41.000000) scale(0.100000,-0.100000)"
fill="#000000" stroke="none">
<path d="M133 337 l-66 -67 23 -25 c13 -14 32 -25 42 -25 10 0 18 -2 18 -5 0
-2 -25 -29 -55 -58 -59 -57 -69 -89 -35 -107 26 -14 45 -3 98 54 40 44 60 56
54 34 -4 -13 37 -58 52 -58 14 0 126 111 126 125 0 16 -49 60 -57 52 -10 -10
-83 64 -83 83 0 9 -11 27 -25 40 l-25 23 -67 -66z m87 9 c0 -6 -20 -31 -44
-55 -32 -31 -50 -42 -62 -37 -15 6 -9 15 36 61 50 51 70 60 70 31z m44 -72
c20 -20 36 -37 36 -39 0 -5 -61 -65 -66 -65 -3 0 -21 16 -40 36 l-36 36 33 34
c18 19 34 34 35 34 1 0 18 -16 38 -36z m93 -60 c2 -5 -19 -32 -47 -59 -39 -38
-52 -47 -62 -37 -10 10 -1 23 37 62 47 48 65 56 72 34z m-173 -32 c8 -14 -100
-115 -114 -107 -8 5 5 25 41 61 54 55 64 61 73 46z"/>
</g>
</svg>
